ModelForces
version=1
nRows=4
nColumns=157
inDegrees=no

This file contains the forces exerted on a model during a simulation.

A force is a generalized force, meaning that it can be either a force (N) or a torque (Nm).

Units are S.I. units (second, meters, Newtons, ...)
Angles are in degrees.

endheader
time	glut_med1_r	glut_med2_r	glut_med3_r	glut_min1_r	glut_min2_r	glut_min3_r	semimem_r	semiten_r	bifemlh_r	bifemsh_r	sar_r	add_long_r	add_brev_r	add_mag1_r	add_mag2_r	add_mag3_r	tfl_r	pect_r	grac_r	glut_max1_r	glut_max2_r	glut_max3_r	iliacus_r	psoas_r	quad_fem_r	gem_r	peri_r	rect_fem_r	vas_med_r	vas_int_r	vas_lat_r	med_gas_r	lat_gas_r	soleus_r	tib_post_r	flex_dig_r	flex_hal_r	tib_ant_r	per_brev_r	per_long_r	per_tert_r	ext_dig_r	ext_hal_r	glut_med1_l	glut_med2_l	glut_med3_l	glut_min1_l	glut_min2_l	glut_min3_l	semimem_l	semiten_l	bifemlh_l	bifemsh_l	sar_l	add_long_l	add_brev_l	add_mag1_l	add_mag2_l	add_mag3_l	tfl_l	pect_l	grac_l	glut_max1_l	glut_max2_l	glut_max3_l	iliacus_l	psoas_l	quad_fem_l	gem_l	peri_l	rect_fem_l	vas_med_l	vas_int_l	vas_lat_l	med_gas_l	lat_gas_l	soleus_l	tib_post_l	flex_dig_l	flex_hal_l	tib_ant_l	per_brev_l	per_long_l	per_tert_l	ext_dig_l	ext_hal_l	ercspn_r	ercspn_l	intobl_r	intobl_l	extobl_r	extobl_l	femur_lat_meniscii_r.femur_lat_r.force.X	femur_lat_meniscii_r.femur_lat_r.force.Y	femur_lat_meniscii_r.femur_lat_r.force.Z	femur_lat_meniscii_r.femur_lat_r.torque.X	femur_lat_meniscii_r.femur_lat_r.torque.Y	femur_lat_meniscii_r.femur_lat_r.torque.Z	femur_lat_meniscii_r.meniscus_lat_r.force.X	femur_lat_meniscii_r.meniscus_lat_r.force.Y	femur_lat_meniscii_r.meniscus_lat_r.force.Z	femur_lat_meniscii_r.meniscus_lat_r.torque.X	femur_lat_meniscii_r.meniscus_lat_r.torque.Y	femur_lat_meniscii_r.meniscus_lat_r.torque.Z	femur_med_meniscii_r.femur_med_r.force.X	femur_med_meniscii_r.femur_med_r.force.Y	femur_med_meniscii_r.femur_med_r.force.Z	femur_med_meniscii_r.femur_med_r.torque.X	femur_med_meniscii_r.femur_med_r.torque.Y	femur_med_meniscii_r.femur_med_r.torque.Z	femur_med_meniscii_r.meniscus_med_r.force.X	femur_med_meniscii_r.meniscus_med_r.force.Y	femur_med_meniscii_r.meniscus_med_r.force.Z	femur_med_meniscii_r.meniscus_med_r.torque.X	femur_med_meniscii_r.meniscus_med_r.torque.Y	femur_med_meniscii_r.meniscus_med_r.torque.Z	femur_med_tibia_r.tibia_upper_r.force.X	femur_med_tibia_r.tibia_upper_r.force.Y	femur_med_tibia_r.tibia_upper_r.force.Z	femur_med_tibia_r.tibia_upper_r.torque.X	femur_med_tibia_r.tibia_upper_r.torque.Y	femur_med_tibia_r.tibia_upper_r.torque.Z	femur_med_tibia_r.femur_med_r.force.X	femur_med_tibia_r.femur_med_r.force.Y	femur_med_tibia_r.femur_med_r.force.Z	femur_med_tibia_r.femur_med_r.torque.X	femur_med_tibia_r.femur_med_r.torque.Y	femur_med_tibia_r.femur_med_r.torque.Z	femur_lat_tibia_r.tibia_upper_r.force.X	femur_lat_tibia_r.tibia_upper_r.force.Y	femur_lat_tibia_r.tibia_upper_r.force.Z	femur_lat_tibia_r.tibia_upper_r.torque.X	femur_lat_tibia_r.tibia_upper_r.torque.Y	femur_lat_tibia_r.tibia_upper_r.torque.Z	femur_lat_tibia_r.femur_lat_r.force.X	femur_lat_tibia_r.femur_lat_r.force.Y	femur_lat_tibia_r.femur_lat_r.force.Z	femur_lat_tibia_r.femur_lat_r.torque.X	femur_lat_tibia_r.femur_lat_r.torque.Y	femur_lat_tibia_r.femur_lat_r.torque.Z	aACL_R	pACL_R	aPCL_R	pPCL_R	aMCL_R	mMCL_R	pMCL_R	aLCL_R	mLCL_R	pLCL_R	ground_prescribedForce_fx	ground_prescribedForce_fy	ground_prescribedForce_fz	ground_prescribedForce_px	ground_prescribedForce_py	ground_prescribedForce_pz
      0.23611415	      9.07772200	      6.71480212	      7.20286291	      3.12861068	      3.68832483	      3.83827545	      8.57782017	      5.05672474	      9.12512463	      8.08504109	      1.83562078	      6.66593101	      4.86530343	      3.45540496	      2.91648246	      4.82394065	      4.67138976	      2.63696729	      1.88952226	      4.33314956	      6.58820462	      4.93302949	     24.55586784	     15.12370427	      4.28252828	      3.16455364	      5.23610196	     14.63623071	     10.51970491	     10.67090631	     13.79125664	      3.35547353	      1.55050931	      8.51330668	      8.23088190	      1.79351912	      1.93498666	     15.71718792	      4.95673912	     11.20932263	      9.86774073	      8.04496981	      2.58178671	      9.07772200	      6.71480212	      7.20286291	      3.12861068	      3.68832483	      3.83827545	     10.93273823	      4.90243374	      9.51814880	      8.52200271	      1.78685341	      6.66593101	      4.86530343	      3.45540496	      2.91648246	      4.82394065	      4.61515942	      2.63696729	      1.83785915	      4.33314956	      6.58820462	      4.93302949	     24.55586784	     15.12370427	      4.28252828	      3.16455364	      5.23610196	     13.17096362	      7.84607360	      9.02986054	      9.70225743	     18.48158671	      8.58424127	     39.80323512	     45.88867905	      3.66857678	      3.76989046	     10.34573527	      5.44214274	     14.92094333	      2.33969015	      6.72681105	      2.11569055	     29.43469197	     29.43469197	     10.74712222	     10.74712222	     28.37515918	     28.37515918	     17.12873798	     27.49524132	      8.06268191	     -4.00107791	      0.40740059	      7.11009377	    -17.12873798	    -27.49524132	     -8.06268191	      0.95801974	     -0.48132891	     -0.39316962	     41.72347062	     59.62430236	     16.13245437	     -5.31223338	     -1.02761834	     17.47561854	    -41.72347062	    -59.62430236	    -16.13245437	     -0.76788105	      0.86566967	     -1.15202969	    -17.36240860	    -51.70712161	     -7.73695314	     -0.88240989	      0.39348682	     -0.64980599	     17.36240860	     51.70712161	      7.73695314	     -1.99003793	     -0.46617111	      7.58159258	      0.00000000	      0.00000000	      0.00000000	      0.00000000	      0.00000000	      0.00000000	      0.00000000	      0.00000000	      0.00000000	      0.00000000	      0.00000000	      0.00000000	     41.88436293	     49.20004784	      0.00000000	      0.00000000	      0.00000000	      0.00000000	      0.00000000	     -0.45117053	      0.00000000	     -3.66901457	    106.25000000	    -28.47000000	      0.00000000	      0.03000000	     -0.03000000	      0.00000000
      0.23659207	      9.06818558	      6.70828758	      7.19578789	      3.12570309	      3.68516416	      3.83425249	      8.57496023	      5.05464304	      9.09976834	      8.07039290	      1.83495841	      6.65938742	      4.86081507	      3.45207319	      2.91360276	      4.81872244	      4.66030817	      2.63450055	      1.88925829	      4.32894036	      6.58178713	      4.92814018	     24.54397815	     15.11021008	      4.27846171	      3.16261071	      5.22927315	     14.61438252	     10.52033407	     10.66012808	     13.76408627	      3.35585946	      1.54637161	      8.51153203	      8.22395909	      1.81004412	      1.94035263	     15.69714918	      4.95362725	     11.18721990	      8.73401467	      7.99974158	      2.57252584	      9.06818558	      6.70828758	      7.19578789	      3.12570309	      3.68516416	      3.83425249	     10.91932008	      4.89732878	      9.50681856	      8.51390361	      1.78519983	      6.65938742	      4.86081507	      3.45207319	      2.91360276	      4.81872244	      4.61192564	      2.63450055	      1.83612950	      4.32894036	      6.58178713	      4.92814018	     24.54397815	     15.11021008	      4.27846171	      3.16261071	      5.22927315	     13.15547579	      7.83826089	      9.02070307	      9.69245020	     18.45598974	      8.57233697	     39.75121080	     45.86709721	      3.66308047	      3.76477242	     10.33396640	      5.43537574	     14.90633334	      2.33760574	      6.71757207	      2.11283501	     29.40727657	     29.40727657	     10.73624678	     10.73624678	     28.36537028	     28.36537028	     17.21587136	     27.63179403	      8.09603554	     -4.01812392	      0.40940733	      7.14639250	    -17.21587136	    -27.63179403	     -8.09603554	      0.96246744	     -0.48366192	     -0.39523930	     41.72872172	     59.61599477	     16.11295514	     -5.30408061	     -1.02735429	     17.47712701	    -41.72872172	    -59.61599477	    -16.11295514	     -0.76867758	      0.86552942	     -1.15139501	    -17.15277566	    -51.12301655	     -7.71647445	     -0.87159587	      0.38927757	     -0.64185520	     17.15277566	     51.12301655	      7.71647445	     -1.99418302	     -0.46145036	      7.49028755	      0.00000000	      0.00000000	      0.00000000	      0.00000000	      0.00000000	      0.00000000	      0.00000000	      0.00000000	      0.00000000	      0.00000000	      0.00000000	      0.00000000	     41.86306576	     49.14520937	      0.00000000	      0.00000000	      0.00000000	      0.00000000	      0.00000000	     -0.56579261	      0.00000000	     -3.77767463	    106.25000000	    -28.47000000	      0.00000000	      0.03000000	     -0.03000000	      0.00000000
      0.23733372	      9.05350563	      6.69825890	      7.18489655	      3.12122715	      3.68029848	      3.82805969	      8.57032143	      5.05126582	      9.06016477	      8.04738943	      1.83374308	      6.64931417	      4.85391060	      3.44694417	      2.90916981	      4.81068978	      4.64314089	      2.63070310	      1.88865439	      4.32246070	      6.57190803	      4.92061365	     24.52567576	     15.08943883	      4.27220137	      3.15962007	      5.21875621	     14.58031152	     10.52025581	     10.64280943	     13.72129156	      3.35629027	      1.54002022	      8.50916645	      8.21296836	      1.83576183	      1.94863265	     15.66655102	      4.94920374	     11.15393876	      8.68460321	      7.92895676	      2.55831633	      9.05350563	      6.69825890	      7.18489655	      3.12122715	      3.68029848	      3.82805969	     10.89866032	      4.88947040	      9.48937488	      8.50143540	      1.78265464	      6.64931417	      4.85391060	      3.44694417	      2.90916981	      4.81068978	      4.60694772	      2.63070310	      1.83346675	      4.32246070	      6.57190803	      4.92061365	     24.52567576	     15.08943883	      4.27220137	      3.15962007	      5.21875621	     13.13163184	      7.82623443	      9.00660678	      9.67735388	     18.41655367	      8.55399671	     39.67109022	     45.83386928	      3.65461782	      3.75689331	     10.31584894	      5.42495635	     14.88383279	      2.33439719	      6.70334114	      2.10843727	     29.36507236	     29.36507236	     10.71950534	     10.71950534	     28.35030186	     28.35030186	     17.26561669	     27.83443881	      8.12847482	     -4.03630008	      0.41077766	      7.16685491	    -17.26561669	    -27.83443881	     -8.12847482	      0.96849401	     -0.48527963	     -0.39543894	     41.67755088	     59.61090019	     16.03816787	     -5.27269943	     -1.02606498	     17.45414140	    -41.67755088	    -59.61090019	    -16.03816787	     -0.77152932	      0.86476978	     -1.14781479	    -16.83265469	    -50.23227919	     -7.65807083	     -0.85612192	      0.38283766	     -0.62974185	     16.83265469	     50.23227919	      7.65807083	     -1.98904904	     -0.45409170	      7.35089061	      0.00000000	      0.00000000	      0.00000000	      0.00000000	      0.00000000	      0.00000000	      0.00000000	      0.00000000	      0.00000000	      0.00000000	      0.00000000	      0.00000000	     41.82113732	     49.04937596	      0.00000000	      0.00000000	      0.00000000	      0.00000000	      0.00000000	     -0.75022614	      0.00000000	     -3.95167620	    106.25000000	    -28.47000000	      0.00000000	      0.03000000	     -0.03000000	      0.00000000
      0.24027511	      8.99668094	      6.65943333	      7.14273300	      3.10389837	      3.66146070	      3.80408771	      8.53439582	      5.02853374	      8.88452353	      7.92673820	      1.82450875	      6.61031770	      4.82720255	      3.42708752	      2.89200938	      4.77959663	      4.57094216	      2.61600022	      1.88043251	      4.29737629	      6.53366363	      4.89147776	     24.45482972	     15.00904799	      4.24796330	      3.14804612	      5.17798846	     14.42210907	     10.47673327	     10.53106183	     13.50489495	      3.33923553	      1.50729659	      8.49130896	      8.16502751	      1.93784796	      1.97989330	     15.55346908	      4.93518870	     11.03211944	      8.47282519	      7.64478160	      2.50510826	      8.99668094	      6.65943333	      7.14273300	      3.10389837	      3.66146070	      3.80408771	     10.81863720	      4.85905102	      9.42182454	      8.45316273	      1.77280257	      6.61031770	      4.82720255	      3.42708752	      2.89200938	      4.77959663	      4.58767905	      2.61600022	      1.82315719	      4.29737629	      6.53366363	      4.89147776	     24.45482972	     15.00904799	      4.24796330	      3.14804612	      5.17798846	     13.03930331	      7.77968224	      8.95204486	      9.61892302	     18.26351319	      8.48282462	     39.36052585	     45.70517932	      3.62183570	      3.72638484	     10.24570688	      5.38459407	     14.79661197	      2.32197827	      6.64815391	      2.09139118	     29.20167162	     29.20167162	     10.65469793	     10.65469793	     28.29197549	     28.29197549	     17.93470219	     28.88458235	      8.41887498	     -4.18174596	      0.42652449	      7.44555131	    -17.93470219	    -28.88458235	     -8.41887498	      1.00419493	     -0.50377443	     -0.41138538	     41.99704821	     59.66423128	     16.10013123	     -5.29783388	     -1.03270378	     17.58375046	    -41.99704821	    -59.66423128	    -16.10013123	     -0.77058874	      0.87057075	     -1.15348811	    -15.97548764	    -47.64009451	     -7.56312001	     -0.80775748	      0.36561590	     -0.59726512	     15.97548764	     47.64009451	      7.56312001	     -2.00622914	     -0.43475882	      6.97674657	      0.00000000	      0.00000000	      0.00000000	      0.00000000	      0.00000000	      0.00000000	      0.00000000	      0.00000000	      0.00000000	      0.00000000	      0.00000000	      0.00000000	     41.39119239	     48.40196309	      0.00000000	      0.00000000	      0.00000000	      0.00000000	      0.00000000	     -2.90048038	      0.00000000	      0.00000000	    106.25000000	    -28.47000000	      0.00000000	      0.03000000	     -0.03000000	      0.00000000
